<?xml version="1.0" encoding="UTF-8"?>
<svg version="1.1" xmlns="http://www.w3.org/2000/svg" width="230" height="230">
<path d="M0 0 C4.02481932 3.5542421 7.54875796 7.26883333 10.83984375 11.5078125 C11.35804688 12.15621094 11.87625 12.80460937 12.41015625 13.47265625 C24.71953557 30.26110291 28.86872537 52.18086994 25.83984375 72.5078125 C21.91372868 94.41374997 9.97456693 112.84602662 -8.2265625 125.66796875 C-22.34682947 134.75863401 -36.34028877 138.91188212 -53.03515625 138.8203125 C-54.09508789 138.81539795 -55.15501953 138.8104834 -56.24707031 138.80541992 C-63.59104656 138.6951585 -70.23882468 138.12160841 -77.16015625 135.5078125 C-78.15789062 135.14429688 -79.155625 134.78078125 -80.18359375 134.40625 C-100.62018116 126.42722972 -115.81597433 112.7166005 -125.53515625 93.1328125 C-134.28574218 72.49932862 -135.04986292 50.32774027 -126.91015625 29.3203125 C-118.34574709 10.12685984 -103.09510054 -5.75459361 -83.66796875 -13.96875 C-54.30248364 -24.95671051 -24.14948928 -19.95355843 0 0 Z M-48.16015625 -9.4921875 C-47.21011911 -7.00954327 -46.25065746 -4.53131036 -45.28515625 -2.0546875 C-45.01574219 -1.34763672 -44.74632813 -0.64058594 -44.46875 0.08789062 C-43.17978683 4.00727875 -43.17978683 4.00727875 -40.16015625 6.5078125 C-38.11895837 4.89186418 -36.11942688 3.2221743 -34.16015625 1.5078125 C-34.16015625 0.8478125 -34.16015625 0.1878125 -34.16015625 -0.4921875 C-33.54140625 -0.5953125 -32.92265625 -0.6984375 -32.28515625 -0.8046875 C-29.79489141 -1.36744123 -29.79489141 -1.36744123 -28.16015625 -4.4921875 C-34.56864514 -7.77094926 -41.06694389 -8.5855363 -48.16015625 -9.4921875 Z M-67.91015625 -7.9921875 C-68.60753906 -7.84910156 -69.30492187 -7.70601562 -70.0234375 -7.55859375 C-71.73639803 -7.20661556 -73.44837826 -6.84987245 -75.16015625 -6.4921875 C-72.80103691 -3.44196052 -70.47135862 -0.68257366 -67.53515625 1.8203125 C-66.94476563 2.33207031 -66.354375 2.84382813 -65.74609375 3.37109375 C-64.21443397 4.70200018 -64.21443397 4.70200018 -62.16015625 4.5078125 C-60.18015625 -0.1121875 -58.20015625 -4.7321875 -56.16015625 -9.4921875 C-60.25083137 -9.4921875 -63.93496735 -8.82630086 -67.91015625 -7.9921875 Z M-53.16015625 -4.4921875 C-54.02862456 -2.74924072 -54.87946252 -0.99750087 -55.72265625 0.7578125 C-56.19832031 1.73234375 -56.67398438 2.706875 -57.1640625 3.7109375 C-58.19525898 6.60637547 -58.27362413 7.70747411 -57.16015625 10.5078125 C-56.54140625 10.5903125 -55.92265625 10.6728125 -55.28515625 10.7578125 C-53.16015625 11.5078125 -53.16015625 11.5078125 -51.91015625 13.5703125 C-51.66265625 14.2096875 -51.41515625 14.8490625 -51.16015625 15.5078125 C-50.17015625 15.1778125 -49.18015625 14.8478125 -48.16015625 14.5078125 C-48.16015625 13.8478125 -48.16015625 13.1878125 -48.16015625 12.5078125 C-47.17015625 12.1778125 -46.18015625 11.8478125 -45.16015625 11.5078125 C-46.71288476 6.45318565 -48.30346161 1.99690407 -51.16015625 -2.4921875 C-51.16015625 -3.1521875 -51.16015625 -3.8121875 -51.16015625 -4.4921875 C-51.82015625 -4.4921875 -52.48015625 -4.4921875 -53.16015625 -4.4921875 Z M-89.53515625 0.8203125 C-90.96988281 1.74263672 -90.96988281 1.74263672 -92.43359375 2.68359375 C-95.89103385 4.97069951 -95.89103385 4.97069951 -99.16015625 7.5078125 C-99.16015625 8.1678125 -99.16015625 8.8278125 -99.16015625 9.5078125 C-93.88015625 11.1578125 -88.60015625 12.8078125 -83.16015625 14.5078125 C-82.83015625 8.8978125 -82.50015625 3.2878125 -82.16015625 -2.4921875 C-85.21790312 -2.4921875 -86.99493465 -0.8243618 -89.53515625 0.8203125 Z M-19.16015625 -0.4921875 C-20.1612514 2.81852088 -20.26371759 5.80866019 -20.22265625 9.2578125 C-20.21363281 10.24265625 -20.20460938 11.2275 -20.1953125 12.2421875 C-20.18371094 12.98984375 -20.17210937 13.7375 -20.16015625 14.5078125 C-14.65207228 13.91766065 -9.51137556 12.94117481 -4.16015625 11.5078125 C-8.06340255 6.21954332 -12.48425177 2.81484775 -18.16015625 -0.4921875 C-18.49015625 -0.4921875 -18.82015625 -0.4921875 -19.16015625 -0.4921875 Z M-77.16015625 0.5078125 C-77.49015625 5.7878125 -77.82015625 11.0678125 -78.16015625 16.5078125 C-75.19015625 17.4978125 -72.22015625 18.4878125 -69.16015625 19.5078125 C-68.45890625 18.2703125 -67.75765625 17.0328125 -67.03515625 15.7578125 C-66.44347656 14.71367188 -66.44347656 14.71367188 -65.83984375 13.6484375 C-64.94150868 11.52723171 -64.94150868 11.52723171 -65.79296875 9.4765625 C-67.36748065 7.20926537 -69.06806134 5.55762944 -71.16015625 3.7578125 C-71.86140625 3.14421875 -72.56265625 2.530625 -73.28515625 1.8984375 C-75.03882195 0.30924328 -75.03882195 0.30924328 -77.16015625 0.5078125 Z M-32.28515625 5.6328125 C-32.86136719 6.1071875 -33.43757813 6.5815625 -34.03125 7.0703125 C-35.92155479 8.66559143 -35.92155479 8.66559143 -38.16015625 11.5078125 C-38.18483922 14.80319013 -38.18483922 14.80319013 -37.16015625 17.5078125 C-32.14568294 19.02734987 -30.88790796 18.14431299 -25.16015625 16.5078125 C-25.16015625 11.2278125 -25.16015625 5.9478125 -25.16015625 0.5078125 C-27.64493913 0.5078125 -30.41516265 3.99603805 -32.28515625 5.6328125 Z M-106.16015625 14.5078125 C-107.75601871 16.70807809 -109.22182223 18.89535666 -110.66015625 21.1953125 C-111.26537109 22.13407227 -111.26537109 22.13407227 -111.8828125 23.09179688 C-114.02507907 26.46781103 -115.82568438 29.71472125 -117.16015625 33.5078125 C-114.53477341 33.36727378 -111.90998198 33.22062303 -109.28515625 33.0703125 C-108.53878906 33.03099609 -107.79242188 32.99167969 -107.0234375 32.95117188 C-102.96028761 32.79207626 -102.96028761 32.79207626 -99.16015625 31.5078125 C-99.84951696 27.59659752 -100.94265806 23.95272654 -102.22265625 20.1953125 C-102.58488281 19.12667969 -102.94710937 18.05804688 -103.3203125 16.95703125 C-103.59746094 16.14878906 -103.87460938 15.34054688 -104.16015625 14.5078125 C-104.82015625 14.5078125 -105.48015625 14.5078125 -106.16015625 14.5078125 Z M-61.16015625 14.5078125 C-62.64515625 17.9728125 -62.64515625 17.9728125 -64.16015625 21.5078125 C-61.30237592 22.19274623 -61.30237592 22.19274623 -58.16015625 22.5078125 C-57.17015625 21.8478125 -56.18015625 21.1878125 -55.16015625 20.5078125 C-56.20890623 17.88593756 -56.80946938 16.71409889 -59.28515625 15.2578125 C-59.90390625 15.0103125 -60.52265625 14.7628125 -61.16015625 14.5078125 Z M-98.16015625 15.5078125 C-97.06317458 21.19921152 -95.61962548 26.25349187 -93.16015625 31.5078125 C-88.70515625 31.0128125 -88.70515625 31.0128125 -84.16015625 30.5078125 C-83.83015625 27.2078125 -83.50015625 23.9078125 -83.16015625 20.5078125 C-90.38242777 17.11010939 -90.38242777 17.11010939 -98.16015625 15.5078125 Z M-44.16015625 16.5078125 C-45.15015625 17.9928125 -45.15015625 17.9928125 -46.16015625 19.5078125 C-43.68515625 20.0028125 -43.68515625 20.0028125 -41.16015625 20.5078125 C-41.49015625 19.1878125 -41.82015625 17.8678125 -42.16015625 16.5078125 C-42.82015625 16.5078125 -43.48015625 16.5078125 -44.16015625 16.5078125 Z M-12.78515625 18.5078125 C-13.4915625 18.69859375 -14.19796875 18.889375 -14.92578125 19.0859375 C-16.67117708 19.5576661 -18.41574655 20.03245025 -20.16015625 20.5078125 C-20.49015625 23.4778125 -20.82015625 26.4478125 -21.16015625 29.5078125 C-17.20015625 29.8378125 -13.24015625 30.1678125 -9.16015625 30.5078125 C-8.52078125 28.8784375 -7.88140625 27.2490625 -7.22265625 25.5703125 C-5.28515625 20.6328125 -5.28515625 20.6328125 -4.16015625 19.5078125 C-3.83015625 18.5178125 -3.50015625 17.5278125 -3.16015625 16.5078125 C-6.47597608 16.5078125 -9.6044943 17.63929226 -12.78515625 18.5078125 Z M1.83984375 18.5078125 C0.83475574 20.29662986 -0.16408361 22.08895946 -1.16015625 23.8828125 C-1.71703125 24.88054687 -2.27390625 25.87828125 -2.84765625 26.90625 C-4.31029893 29.31976759 -4.31029893 29.31976759 -4.16015625 31.5078125 C0.78984375 31.8378125 5.73984375 32.1678125 10.83984375 32.5078125 C9.44765625 29.5996875 9.44765625 29.5996875 8.02734375 26.6328125 C7.24423828 24.99699219 7.24423828 24.99699219 6.4453125 23.328125 C4.99259478 20.28559848 4.99259478 20.28559848 1.83984375 18.5078125 Z M-78.16015625 22.5078125 C-78.49015625 24.8178125 -78.82015625 27.1278125 -79.16015625 29.5078125 C-77.18015625 29.5078125 -75.20015625 29.5078125 -73.16015625 29.5078125 C-72.50015625 27.8578125 -71.84015625 26.2078125 -71.16015625 24.5078125 C-73.80754541 23.047184 -75.05463959 22.5078125 -78.16015625 22.5078125 Z M-34.16015625 23.5078125 C-33.50015625 25.1578125 -32.84015625 26.8078125 -32.16015625 28.5078125 C-30.18015625 28.5078125 -28.20015625 28.5078125 -26.16015625 28.5078125 C-26.16015625 26.5278125 -26.16015625 24.5478125 -26.16015625 22.5078125 C-28.99982856 22.5078125 -31.39751336 22.91048431 -34.16015625 23.5078125 Z M-49.16015625 24.5078125 C-48.16015625 26.5078125 -48.16015625 26.5078125 -48.16015625 26.5078125 Z M-51.16015625 22.5078125 C-52.36671875 23.77625 -52.36671875 23.77625 -53.59765625 25.0703125 C-55.72073599 26.88282182 -56.7411723 27.48873681 -59.5625 27.6171875 C-61.79667418 27.34894542 -63.96513059 27.00047381 -66.16015625 26.5078125 C-66.65515625 27.6421875 -67.15015625 28.7765625 -67.66015625 29.9453125 C-68.98556874 32.3272132 -69.59028125 33.3164041 -72.20703125 34.1953125 C-74.41015625 34.4453125 -74.41015625 34.4453125 -78.16015625 34.5078125 C-79.15015625 37.9728125 -79.15015625 37.9728125 -80.16015625 41.5078125 C-79.50015625 41.8378125 -78.84015625 42.1678125 -78.16015625 42.5078125 C-77.83015625 40.5278125 -77.50015625 38.5478125 -77.16015625 36.5078125 C-75.92265625 36.4665625 -74.68515625 36.4253125 -73.41015625 36.3828125 C-69.56750913 35.93995423 -69.30497594 35.68521662 -66.66015625 32.4453125 C-66.16515625 31.4759375 -65.67015625 30.5065625 -65.16015625 29.5078125 C-63.42765625 29.9409375 -63.42765625 29.9409375 -61.66015625 30.3828125 C-58.73072758 30.78560894 -57.47194038 30.67897777 -54.84765625 29.23828125 C-52.87247072 27.73220229 -50.98996026 26.18675501 -49.16015625 24.5078125 C-49.82015625 23.8478125 -50.48015625 23.1878125 -51.16015625 22.5078125 Z M-48.16015625 26.5078125 C-45.15398356 29.51398519 -42.33634027 29.10366566 -38.16015625 29.5078125 C-38.49015625 28.1878125 -38.82015625 26.8678125 -39.16015625 25.5078125 C-42.2724282 25.5078125 -45.10167777 25.96408299 -48.16015625 26.5078125 Z M-38.16015625 29.5078125 C-37.16015625 31.5078125 -37.16015625 31.5078125 -37.16015625 31.5078125 Z M-37.16015625 31.5078125 C-36.83015625 32.4978125 -36.50015625 33.4878125 -36.16015625 34.5078125 C-35.04640625 34.8171875 -33.93265625 35.1265625 -32.78515625 35.4453125 C-28.9974799 36.5554935 -28.05069799 37.17156236 -26.16015625 40.5078125 C-26.16015625 38.5278125 -26.16015625 36.5478125 -26.16015625 34.5078125 C-26.78664063 34.37503906 -27.413125 34.24226563 -28.05859375 34.10546875 C-29.28449219 33.84056641 -29.28449219 33.84056641 -30.53515625 33.5703125 C-31.34726563 33.39628906 -32.159375 33.22226563 -32.99609375 33.04296875 C-35.16015625 32.5078125 -35.16015625 32.5078125 -37.16015625 31.5078125 Z M-21.16015625 34.5078125 C-21.4944136 36.88156111 -21.4944136 36.88156111 -21.16015625 39.5078125 C-19.25970955 41.35096921 -19.25970955 41.35096921 -17.16015625 42.5078125 C-14.14688059 41.00117467 -13.54959007 38.47614839 -12.16015625 35.5078125 C-15.13015625 35.1778125 -18.10015625 34.8478125 -21.16015625 34.5078125 Z M-91.16015625 37.5078125 C-90.83015625 38.4978125 -90.50015625 39.4878125 -90.16015625 40.5078125 C-87.99141373 40.00177258 -86.16047998 39.50797437 -84.16015625 38.5078125 C-84.16015625 37.5178125 -84.16015625 36.5278125 -84.16015625 35.5078125 C-88.20638127 35.13801237 -88.20638127 35.13801237 -91.16015625 37.5078125 Z M-54.16015625 36.5078125 C-54.82015625 37.1678125 -55.48015625 37.8278125 -56.16015625 38.5078125 C-55.84163855 40.61602047 -55.84163855 40.61602047 -55.16015625 42.5078125 C-52.11102397 43.51892343 -52.11102397 43.51892343 -49.16015625 42.5078125 C-49.16015625 40.8578125 -49.16015625 39.2078125 -49.16015625 37.5078125 C-51.55735057 36.82822647 -51.55735057 36.82822647 -54.16015625 36.5078125 Z M-7.16015625 36.5078125 C-10.45829865 41.98606331 -10.45829865 41.98606331 -10.16015625 46.5078125 C-7.96345363 48.44260121 -7.96345363 48.44260121 -5.16015625 49.5078125 C-1.58771451 49.11887731 0.12923728 47.59926915 2.58984375 45.0703125 C3.51023438 44.14412109 3.51023438 44.14412109 4.44921875 43.19921875 C6.05153767 41.61527731 6.05153767 41.61527731 5.83984375 39.5078125 C6.82984375 39.1778125 7.81984375 38.8478125 8.83984375 38.5078125 C8.83984375 38.1778125 8.83984375 37.8478125 8.83984375 37.5078125 C3.55984375 37.1778125 -1.72015625 36.8478125 -7.16015625 36.5078125 Z M-113.16015625 38.5078125 C-109.95255374 42.31416747 -106.75269516 46.05344817 -103.16015625 49.5078125 C-99.70090462 48.2586383 -97.01322422 46.83253455 -94.16015625 44.5078125 C-94.82015625 42.1978125 -95.48015625 39.8878125 -96.16015625 37.5078125 C-101.94607136 37.40303738 -107.45324991 37.51530705 -113.16015625 38.5078125 Z M-120.16015625 40.5078125 C-121.6698966 47.59820022 -122.4432355 54.25783828 -122.16015625 61.5078125 C-118.27008852 60.12000455 -115.19456917 58.2925898 -111.84765625 55.8828125 C-110.96464844 55.25117187 -110.08164063 54.61953125 -109.171875 53.96875 C-108.50800781 53.48664063 -107.84414062 53.00453125 -107.16015625 52.5078125 C-107.82015625 52.1778125 -108.48015625 51.8478125 -109.16015625 51.5078125 C-109.49015625 50.5178125 -109.82015625 49.5278125 -110.16015625 48.5078125 C-110.82015625 48.5078125 -111.48015625 48.5078125 -112.16015625 48.5078125 C-112.16015625 47.8478125 -112.16015625 47.1878125 -112.16015625 46.5078125 C-113.94739566 44.92325384 -113.94739566 44.92325384 -116.16015625 43.3828125 C-116.90265625 42.84398437 -117.64515625 42.30515625 -118.41015625 41.75 C-118.98765625 41.34007812 -119.56515625 40.93015625 -120.16015625 40.5078125 Z M-27.16015625 41.5078125 C-26.08706905 44.10110656 -25.39713627 45.34750249 -23.03515625 46.9453125 C-21.16015625 48.5078125 -21.16015625 48.5078125 -20.91015625 51.1953125 C-20.99265625 51.9584375 -21.07515625 52.7215625 -21.16015625 53.5078125 C-20.17015625 52.1878125 -19.18015625 50.8678125 -18.16015625 49.5078125 C-19.65850853 44.84627208 -23.04479216 43.64170499 -27.16015625 41.5078125 Z M-84.91015625 43.8203125 C-87.63663616 47.07694129 -87.39331973 47.96771265 -87.03515625 52.0703125 C-86.63703187 55.06437037 -86.11712043 57.63691996 -85.16015625 60.5078125 C-82.82544417 57.00574437 -83.10320561 56.55160069 -83.84765625 52.6328125 C-84.19921875 49.9609375 -84.19921875 49.9609375 -84.16015625 47.5078125 C-81.72265625 44.3828125 -81.72265625 44.3828125 -79.16015625 42.5078125 C-82.21677497 42.29244771 -82.21677497 42.29244771 -84.91015625 43.8203125 Z M12.83984375 41.5078125 C12.50984375 42.8278125 12.17984375 44.1478125 11.83984375 45.5078125 C11.50984375 44.8478125 11.17984375 44.1878125 10.83984375 43.5078125 C7.86984375 46.4778125 4.89984375 49.4478125 1.83984375 52.5078125 C4.70107959 55.36904834 6.99265107 56.82400461 10.52734375 58.6953125 C12.01814453 59.49001953 12.01814453 59.49001953 13.5390625 60.30078125 C14.29832031 60.69910156 15.05757812 61.09742187 15.83984375 61.5078125 C16.16579474 51.31905796 16.16579474 51.31905796 13.83984375 41.5078125 C13.50984375 41.5078125 13.17984375 41.5078125 12.83984375 41.5078125 Z M-62.16015625 52.5078125 C-64.63616957 56.67201671 -64.31799267 59.87646682 -63.16015625 64.5078125 C-61.32153333 67.46274219 -59.83267056 69.10793913 -56.84765625 70.8828125 C-53.21008296 71.72875978 -50.7697661 71.47467228 -47.16015625 70.5078125 C-43.16464826 67.40019517 -40.9505665 64.54667785 -40.16015625 59.5078125 C-40.91979941 55.38851042 -42.22326958 52.38958819 -45.28515625 49.5078125 C-51.66212385 47.28973681 -57.43071323 47.20510366 -62.16015625 52.5078125 Z M-93.16015625 49.5078125 C-95.63515625 50.9928125 -95.63515625 50.9928125 -98.16015625 52.5078125 C-97.11140627 55.12968744 -96.51084312 56.30152611 -94.03515625 57.7578125 C-93.41640625 58.0053125 -92.79765625 58.2528125 -92.16015625 58.5078125 C-90.86972862 56.24179385 -90.86972862 56.24179385 -90.16015625 53.5078125 C-91.42367677 51.18269778 -91.42367677 51.18269778 -93.16015625 49.5078125 Z M-13.16015625 50.5078125 C-15.49406828 53.28895306 -15.49406828 53.28895306 -14.78515625 56.1953125 C-14.57890625 56.9584375 -14.37265625 57.7215625 -14.16015625 58.5078125 C-13.17015625 58.5078125 -12.18015625 58.5078125 -11.16015625 58.5078125 C-9.45483302 56.56771728 -9.45483302 56.56771728 -8.16015625 54.5078125 C-9.47216029 53.15348575 -10.80647029 51.82047768 -12.16015625 50.5078125 C-12.49015625 50.5078125 -12.82015625 50.5078125 -13.16015625 50.5078125 Z M-22.16015625 53.5078125 C-21.70193157 56.97722796 -21.26883942 60.18176299 -20.16015625 63.5078125 C-20.62421875 64.343125 -20.62421875 64.343125 -21.09765625 65.1953125 C-22.69080951 68.66276371 -22.28663884 71.7133349 -22.16015625 75.5078125 C-24.14015625 76.4978125 -26.12015625 77.4878125 -28.16015625 78.5078125 C-24.39390954 79.76322807 -22.78826691 78.87843208 -19.16015625 77.5078125 C-19.18335938 76.76015625 -19.2065625 76.0125 -19.23046875 75.2421875 C-19.25753906 73.76492187 -19.25753906 73.76492187 -19.28515625 72.2578125 C-19.30835938 71.28328125 -19.3315625 70.30875 -19.35546875 69.3046875 C-19.15641505 66.45423858 -18.42880729 65.0017419 -17.16015625 62.5078125 C-18.37046599 59.93453817 -18.37046599 59.93453817 -20.16015625 57.5078125 C-20.84112047 56.18172428 -21.51346211 54.85094649 -22.16015625 53.5078125 Z M-110.28515625 60.5078125 C-110.84847656 60.889375 -111.41179687 61.2709375 -111.9921875 61.6640625 C-113.38430466 62.60787074 -114.77259833 63.55731411 -116.16015625 64.5078125 C-113.4801379 66.2944914 -111.12886881 67.4400262 -108.16015625 68.6328125 C-107.29390625 68.98601562 -106.42765625 69.33921875 -105.53515625 69.703125 C-103.10453553 70.66826109 -103.10453553 70.66826109 -100.16015625 70.5078125 C-97.948474 67.56544468 -97.948474 67.56544468 -96.16015625 64.5078125 C-97.60092671 61.14601476 -99.40765646 58.91624982 -102.16015625 56.5078125 C-105.46769048 56.5078125 -107.60435198 58.68258406 -110.28515625 60.5078125 Z M-75.16015625 56.5078125 C-75.82015625 57.8278125 -76.48015625 59.1478125 -77.16015625 60.5078125 C-75.84814452 62.07031059 -75.84814452 62.07031059 -74.16015625 63.5078125 C-73.17015625 63.5078125 -72.18015625 63.5078125 -71.16015625 63.5078125 C-70.50015625 62.1878125 -69.84015625 60.8678125 -69.16015625 59.5078125 C-69.82015625 58.5178125 -70.48015625 57.5278125 -71.16015625 56.5078125 C-72.48015625 56.5078125 -73.80015625 56.5078125 -75.16015625 56.5078125 Z M-33.16015625 56.5078125 C-33.82015625 57.8278125 -34.48015625 59.1478125 -35.16015625 60.5078125 C-34.17015625 61.9928125 -34.17015625 61.9928125 -33.16015625 63.5078125 C-31.84015625 63.1778125 -30.52015625 62.8478125 -29.16015625 62.5078125 C-28.83015625 60.8578125 -28.50015625 59.2078125 -28.16015625 57.5078125 C-29.81015625 57.1778125 -31.46015625 56.8478125 -33.16015625 56.5078125 Z M-4.765625 58.8203125 C-5.28769531 59.3771875 -5.80976563 59.9340625 -6.34765625 60.5078125 C-6.87746094 61.0646875 -7.40726562 61.6215625 -7.953125 62.1953125 C-8.35144531 62.6284375 -8.74976563 63.0615625 -9.16015625 63.5078125 C-8.03563898 66.479751 -6.93721834 68.84221937 -5.16015625 71.5078125 C1.01207254 70.26753012 6.90666497 68.61177661 12.83984375 66.5078125 C4.6785766 58.86860005 4.6785766 58.86860005 -4.765625 58.8203125 Z M-88.16015625 60.5078125 C-88.49015625 61.4978125 -88.82015625 62.4878125 -89.16015625 63.5078125 C-87.95359375 64.466875 -87.95359375 64.466875 -86.72265625 65.4453125 C-83.70036236 69.05732227 -83.57258459 70.96832646 -83.49609375 75.51953125 C-83.38523437 76.17566406 -83.274375 76.83179688 -83.16015625 77.5078125 C-82.17015625 78.1678125 -81.18015625 78.8278125 -80.16015625 79.5078125 C-79.17015625 79.1778125 -78.18015625 78.8478125 -77.16015625 78.5078125 C-78.15015625 77.8478125 -79.14015625 77.1878125 -80.16015625 76.5078125 C-80.38718919 74.49694929 -80.61018395 72.4851456 -80.78125 70.46875 C-81.33484338 67.60376158 -83.01722218 66.38287981 -85.16015625 64.5078125 C-85.91015625 62.2578125 -85.91015625 62.2578125 -86.16015625 60.5078125 C-86.82015625 60.5078125 -87.48015625 60.5078125 -88.16015625 60.5078125 Z M-93.16015625 67.5078125 C-95.43750635 70.32291243 -95.43750635 70.32291243 -95.16015625 73.5078125 C-93.18015625 74.1678125 -91.20015625 74.8278125 -89.16015625 75.5078125 C-88.39059489 73.16247299 -88.39059489 73.16247299 -88.16015625 70.5078125 C-89.36934507 68.63140831 -89.36934507 68.63140831 -91.16015625 67.5078125 C-91.82015625 67.5078125 -92.48015625 67.5078125 -93.16015625 67.5078125 Z M-121.16015625 68.5078125 C-120.79680853 76.74369411 -118.62921873 83.0576488 -115.16015625 90.5078125 C-112.74940041 87.5573352 -110.48435617 84.61930133 -108.47265625 81.3828125 C-108.05628906 80.72023438 -107.63992187 80.05765625 -107.2109375 79.375 C-106.01459707 77.38727046 -106.01459707 77.38727046 -105.16015625 74.5078125 C-110.44015625 72.5278125 -115.72015625 70.5478125 -121.16015625 68.5078125 Z M-15.16015625 68.5078125 C-14.83015625 70.4878125 -14.50015625 72.4678125 -14.16015625 74.5078125 C-12.84015625 74.1778125 -11.52015625 73.8478125 -10.16015625 73.5078125 C-11.51548885 70.97107962 -11.51548885 70.97107962 -13.16015625 68.5078125 C-13.82015625 68.5078125 -14.48015625 68.5078125 -15.16015625 68.5078125 Z M5.08984375 73.4453125 C4.105 73.82558594 3.12015625 74.20585937 2.10546875 74.59765625 C0.98398438 75.04818359 0.98398438 75.04818359 -0.16015625 75.5078125 C0.47333321 79.22196991 2.12641793 81.69911549 4.27734375 84.7578125 C4.89480469 85.64984375 5.51226562 86.541875 6.1484375 87.4609375 C6.70660156 88.13640625 7.26476562 88.811875 7.83984375 89.5078125 C8.49984375 89.5078125 9.15984375 89.5078125 9.83984375 89.5078125 C13.08628642 81.2105894 13.08628642 81.2105894 14.83984375 72.5078125 C11.05165102 71.07371097 8.77463096 71.99771753 5.08984375 73.4453125 Z M-54.16015625 75.5078125 C-54.82015625 77.1578125 -55.48015625 78.8078125 -56.16015625 80.5078125 C-55.50015625 81.1678125 -54.84015625 81.8278125 -54.16015625 82.5078125 C-51.55735057 82.18739853 -51.55735057 82.18739853 -49.16015625 81.5078125 C-49.16015625 80.1878125 -49.16015625 78.8678125 -49.16015625 77.5078125 C-49.82015625 77.5078125 -50.48015625 77.5078125 -51.16015625 77.5078125 C-51.16015625 76.8478125 -51.16015625 76.1878125 -51.16015625 75.5078125 C-52.15015625 75.5078125 -53.14015625 75.5078125 -54.16015625 75.5078125 Z M-99.16015625 77.5078125 C-100.64515625 78.9928125 -100.64515625 78.9928125 -102.16015625 80.5078125 C-102.16015625 81.4978125 -102.16015625 82.4878125 -102.16015625 83.5078125 C-102.82015625 83.5078125 -103.48015625 83.5078125 -104.16015625 83.5078125 C-105.15015625 85.4878125 -106.14015625 87.4678125 -107.16015625 89.5078125 C-101.88015625 89.5078125 -96.60015625 89.5078125 -91.16015625 89.5078125 C-90.83015625 86.5378125 -90.50015625 83.5678125 -90.16015625 80.5078125 C-93.13015625 79.5178125 -96.10015625 78.5278125 -99.16015625 77.5078125 Z M-13.16015625 80.5078125 C-12.83015625 83.1478125 -12.50015625 85.7878125 -12.16015625 88.5078125 C-7.35583545 90.9099729 -2.4291173 91.11903479 2.83984375 91.5078125 C1.71804745 89.7141382 0.59229892 87.9229352 -0.53515625 86.1328125 C-1.16164062 85.13507813 -1.788125 84.13734375 -2.43359375 83.109375 C-4.05285337 80.4830106 -4.05285337 80.4830106 -6.16015625 78.5078125 C-9.26567291 78.5078125 -10.51276709 79.047184 -13.16015625 80.5078125 Z M-77.16015625 79.5078125 C-75.84015625 82.4778125 -74.52015625 85.4478125 -73.16015625 88.5078125 C-72.10828125 88.3840625 -71.05640625 88.2603125 -69.97265625 88.1328125 C-66.16015625 88.5078125 -66.16015625 88.5078125 -64.58203125 89.84375 C-63.36214758 91.33705588 -62.25255525 92.9188685 -61.16015625 94.5078125 C-57.35381055 93.83610444 -53.80808809 92.78034686 -50.16015625 91.5078125 C-51.15015625 90.8478125 -52.14015625 90.1878125 -53.16015625 89.5078125 C-53.73765625 89.8378125 -54.31515625 90.1678125 -54.91015625 90.5078125 C-57.16015625 91.5078125 -57.16015625 91.5078125 -61.16015625 91.5078125 C-62.05734375 90.30125 -62.05734375 90.30125 -62.97265625 89.0703125 C-64.99120432 86.12128096 -64.99120432 86.12128096 -68.72265625 86.0703125 C-69.85703125 85.8846875 -70.99140625 85.6990625 -72.16015625 85.5078125 C-74.09765625 82.4453125 -74.09765625 82.4453125 -75.16015625 79.5078125 C-75.82015625 79.5078125 -76.48015625 79.5078125 -77.16015625 79.5078125 Z M-29.16015625 79.5078125 C-29.49015625 81.1578125 -29.82015625 82.8078125 -30.16015625 84.5078125 C-31.81015625 84.8378125 -33.46015625 85.1678125 -35.16015625 85.5078125 C-35.16015625 85.8378125 -35.16015625 86.1678125 -35.16015625 86.5078125 C-33.18015625 86.5078125 -31.20015625 86.5078125 -29.16015625 86.5078125 C-28.83015625 84.1978125 -28.50015625 81.8878125 -28.16015625 79.5078125 C-28.49015625 79.5078125 -28.82015625 79.5078125 -29.16015625 79.5078125 Z M-85.16015625 83.5078125 C-85.16015625 85.1578125 -85.16015625 86.8078125 -85.16015625 88.5078125 C-83.18015625 88.5078125 -81.20015625 88.5078125 -79.16015625 88.5078125 C-79.49015625 87.1878125 -79.82015625 85.8678125 -80.16015625 84.5078125 C-81.81015625 84.1778125 -83.46015625 83.8478125 -85.16015625 83.5078125 Z M-23.16015625 83.5078125 C-23.89339421 85.52289608 -23.89339421 85.52289608 -24.16015625 87.5078125 C-21.85015625 87.8378125 -19.54015625 88.1678125 -17.16015625 88.5078125 C-17.49015625 86.5278125 -17.82015625 84.5478125 -18.16015625 82.5078125 C-20.37097476 82.40240324 -20.37097476 82.40240324 -23.16015625 83.5078125 Z M-40.84765625 86.0078125 C-41.28078125 86.5028125 -41.71390625 86.9978125 -42.16015625 87.5078125 C-41.83015625 88.1678125 -41.50015625 88.8278125 -41.16015625 89.5078125 C-39.51015625 87.8578125 -37.86015625 86.2078125 -36.16015625 84.5078125 C-39.16275142 84.17563058 -39.16275142 84.17563058 -40.84765625 86.0078125 Z M-44.16015625 90.5078125 C-46.14015625 90.8378125 -48.12015625 91.1678125 -50.16015625 91.5078125 C-48.84015625 92.4978125 -47.52015625 93.4878125 -46.16015625 94.5078125 C-45.17015625 93.8478125 -44.18015625 93.1878125 -43.16015625 92.5078125 C-43.49015625 91.8478125 -43.82015625 91.1878125 -44.16015625 90.5078125 Z M-39.03515625 93.3828125 C-40.31611882 95.4016713 -40.31611882 95.4016713 -40.16015625 97.5078125 C-36.69515625 98.9928125 -36.69515625 98.9928125 -33.16015625 100.5078125 C-31.66194566 97.13683867 -31.16015625 95.30339131 -31.16015625 91.5078125 C-35.5682174 90.99469456 -35.5682174 90.99469456 -39.03515625 93.3828125 Z M-25.16015625 92.5078125 C-25.66383382 93.96487976 -26.16298181 95.42351346 -26.66015625 96.8828125 C-26.93859375 97.69492188 -27.21703125 98.50703125 -27.50390625 99.34375 C-28.2568893 101.44990492 -28.2568893 101.44990492 -28.16015625 103.5078125 C-23.21015625 105.8178125 -18.26015625 108.1278125 -13.16015625 110.5078125 C-13.63453125 107.8884375 -14.10890625 105.2690625 -14.59765625 102.5703125 C-14.74517334 101.744104 -14.89269043 100.91789551 -15.04467773 100.06665039 C-15.4369877 96.48796867 -15.4369877 96.48796867 -17.16015625 93.5078125 C-18.50762709 93.27706168 -19.8639319 93.09628187 -21.22265625 92.9453125 C-22.52203125 92.8009375 -23.82140625 92.6565625 -25.16015625 92.5078125 Z M-86.16015625 93.5078125 C-88.00189575 99.15581362 -88.70790864 104.59288978 -89.16015625 110.5078125 C-87.17298131 109.60863832 -85.1955674 108.6878663 -83.22265625 107.7578125 C-82.12050781 107.24734375 -81.01835938 106.736875 -79.8828125 106.2109375 C-77.08216352 104.79832719 -77.08216352 104.79832719 -76.22265625 102.5390625 C-76.1238345 99.32735567 -77.17089213 96.53379687 -78.16015625 93.5078125 C-80.80015625 93.5078125 -83.44015625 93.5078125 -86.16015625 93.5078125 Z M-72.16015625 93.5078125 C-71.83015625 95.8178125 -71.50015625 98.1278125 -71.16015625 100.5078125 C-69.18015625 99.8478125 -67.20015625 99.1878125 -65.16015625 98.5078125 C-65.79995474 96.47539523 -65.79995474 96.47539523 -67.16015625 94.5078125 C-69.71535546 93.69610022 -69.71535546 93.69610022 -72.16015625 93.5078125 Z M-112.16015625 95.5078125 C-108.03618011 102.34876116 -103.28318772 108.32772787 -97.16015625 113.5078125 C-96.50015625 113.5078125 -95.84015625 113.5078125 -95.16015625 113.5078125 C-94.6553714 111.09205643 -94.15617983 108.67536889 -93.66015625 106.2578125 C-93.51707031 105.57589844 -93.37398437 104.89398438 -93.2265625 104.19140625 C-92.54764576 100.86148129 -92.16015625 97.92448699 -92.16015625 94.5078125 C-98.89758271 94.39736289 -105.45995836 94.80648337 -112.16015625 95.5078125 Z M-10.16015625 95.5078125 C-9.50015625 100.7878125 -8.84015625 106.0678125 -8.16015625 111.5078125 C-3.69127986 108.82648667 -1.88513622 107.28448127 1.15234375 103.3203125 C1.84972656 102.41925781 2.54710937 101.51820313 3.265625 100.58984375 C3.78511719 99.90277344 4.30460938 99.21570313 4.83984375 98.5078125 C2.06942266 95.73739141 0.0745057 96.10985144 -3.78515625 95.8828125 C-5.88890625 95.7590625 -7.99265625 95.6353125 -10.16015625 95.5078125 Z M-56.16015625 98.5078125 C-55.04161039 102.23395403 -55.04161039 102.23395403 -52.16015625 104.5078125 C-50.53183863 102.69819673 -50.53183863 102.69819673 -49.16015625 100.5078125 C-49.49015625 99.5178125 -49.82015625 98.5278125 -50.16015625 97.5078125 C-53.93654945 97.2096701 -53.93654945 97.2096701 -56.16015625 98.5078125 Z M-44.16015625 101.5078125 C-45.87451805 103.46708313 -47.54420793 105.46661462 -49.16015625 107.5078125 C-47.6747634 112.78920929 -44.07343321 116.78835351 -40.16015625 120.5078125 C-39.50015625 120.5078125 -38.84015625 120.5078125 -38.16015625 120.5078125 C-36.84015625 115.5578125 -35.52015625 110.6078125 -34.16015625 105.5078125 C-35.43890625 104.8478125 -36.71765625 104.1878125 -38.03515625 103.5078125 C-38.75445312 103.1365625 -39.47375 102.7653125 -40.21484375 102.3828125 C-42.10864602 101.37107504 -42.10864602 101.37107504 -44.16015625 101.5078125 Z M-69.16015625 105.5078125 C-68.73925629 111.11242781 -68.24402514 116.22867797 -66.16015625 121.5078125 C-61.95775614 117.79030471 -59.16232946 113.19120271 -56.16015625 108.5078125 C-56.92328125 107.5178125 -57.68640625 106.5278125 -58.47265625 105.5078125 C-59.11654297 104.6725 -59.11654297 104.6725 -59.7734375 103.8203125 C-63.03231333 100.73585538 -66.06428939 103.49968264 -69.16015625 105.5078125 Z M-30.16015625 108.5078125 C-30.85799956 110.9427765 -31.54369447 113.38008355 -32.22265625 115.8203125 C-32.42181641 116.51060547 -32.62097656 117.20089844 -32.82617188 117.91210938 C-34.02974826 122.20115646 -34.02974826 122.20115646 -33.16015625 126.5078125 C-26.5740976 123.86906322 -20.21495188 121.22325527 -14.16015625 117.5078125 C-14.16015625 116.8478125 -14.16015625 116.1878125 -14.16015625 115.5078125 C-16.44944678 114.33626957 -18.74133987 113.17043176 -21.03515625 112.0078125 C-21.68613281 111.67394531 -22.33710938 111.34007812 -23.0078125 110.99609375 C-26.41260335 109.13937533 -26.41260335 109.13937533 -30.16015625 108.5078125 Z M-82.30859375 112.41796875 C-84.85857577 113.91890753 -87.50192124 115.21111249 -90.16015625 116.5078125 C-90.16015625 117.1678125 -90.16015625 117.8278125 -90.16015625 118.5078125 C-87.93463367 119.66122948 -85.70519656 120.80562409 -83.47265625 121.9453125 C-82.84681641 122.27080078 -82.22097656 122.59628906 -81.57617188 122.93164062 C-78.12301986 124.68533563 -75.00822106 125.98541747 -71.16015625 126.5078125 C-71.67498544 120.6550175 -72.61372817 115.1780488 -74.16015625 109.5078125 C-77.63396691 109.5078125 -79.38300144 110.66883803 -82.30859375 112.41796875 Z M-53.16015625 113.5078125 C-54.69877149 115.22396026 -56.19101591 116.98182639 -57.66015625 118.7578125 C-58.47484375 119.73234375 -59.28953125 120.706875 -60.12890625 121.7109375 C-62.42424198 124.50492323 -62.42424198 124.50492323 -63.16015625 128.5078125 C-56.23015625 128.5078125 -49.30015625 128.5078125 -42.16015625 128.5078125 C-42.16015625 124.31584128 -44.48633194 122.34488868 -47.09765625 119.3203125 C-47.56623047 118.76150391 -48.03480469 118.20269531 -48.51757812 117.62695312 C-49.70351315 116.22942682 -50.92878679 114.86547627 -52.16015625 113.5078125 C-52.49015625 113.5078125 -52.82015625 113.5078125 -53.16015625 113.5078125 Z " fill="#020202" transform="translate(166.16015625,55.4921875)"/>
<path d="M0 0 C2.20723394 1.44727491 4.39288651 2.92460521 6.58032227 4.40161133 C10.61121809 7.06433709 14.76453628 9.50572585 18.9375 11.9375 C19.78634766 12.44345703 20.63519531 12.94941406 21.50976562 13.47070312 C22.7250293 14.17936523 22.7250293 14.17936523 23.96484375 14.90234375 C24.6930835 15.33023193 25.42132324 15.75812012 26.17163086 16.19897461 C26.77499268 16.46331299 27.37835449 16.72765137 28 17 C28.99 16.505 28.99 16.505 30 16 C30 16.99 30 17.98 30 19 C30.70125 19.268125 31.4025 19.53625 32.125 19.8125 C35.1661034 21.06860793 38.07097688 22.50294374 41 24 C41.66 24.33 42.32 24.66 43 25 C49.43839987 28.88769359 55.82296896 32.86770268 62.1875 36.875 C63.06792969 37.42929687 63.94835937 37.98359375 64.85546875 38.5546875 C68.25840692 40.84810667 69.93070217 43.38823316 72 46.875 C72.7734375 48.17050781 72.7734375 48.17050781 73.5625 49.4921875 C74.036875 50.31976563 74.51125 51.14734375 75 52 C75.35398361 52.52765961 75.70796722 53.05531921 76.07267761 53.59896851 C77.49949714 57.29330249 77.28605786 61.01826399 77.2746582 64.92431641 C77.27976913 65.82567322 77.28488007 66.72703003 77.29014587 67.65570068 C77.30405258 70.6377221 77.30308346 73.61951249 77.30078125 76.6015625 C77.30466924 78.67939337 77.30900412 80.75722344 77.31376648 82.83505249 C77.32123222 87.1945859 77.32093604 91.55403834 77.31567383 95.91357422 C77.30989645 101.48174625 77.32676658 107.04958378 77.3500185 112.61770058 C77.36480608 116.91244423 77.36562041 121.20710842 77.36250877 125.50187302 C77.36302005 127.55343663 77.36822112 129.60500492 77.37832069 131.65654373 C77.39075721 134.53768332 77.38384903 137.41818581 77.37231445 140.29931641 C77.37995819 141.13604889 77.38760193 141.97278137 77.39547729 142.83486938 C77.31045803 152.51815502 74.75698053 160.90796259 68 168 C63.1648364 172.58751878 57.95331703 176.0645309 52.1875 179.375 C51.0437793 180.04982422 51.0437793 180.04982422 49.87695312 180.73828125 C44.27056421 184 44.27056421 184 42 184 C41.67 184.66 41.34 185.32 41 186 C39.22265625 187 39.22265625 187 37.0625 188 C34.51384512 189.18413003 33.01242841 189.98757159 31 192 C29.59382083 192.74276122 28.16540599 193.44377293 26.7265625 194.12109375 C20.05380316 197.39033822 13.73375975 201.231321 7.375 205.0625 C-12.45844694 217 -12.45844694 217 -17 217 C-17.33 217.66 -17.66 218.32 -18 219 C-29.17645032 219.47975224 -38.83331871 218.81625019 -48 212 C-48.66 212 -49.32 212 -50 212 C-50.39058594 211.59136719 -50.78117187 211.18273437 -51.18359375 210.76171875 C-53.80236548 208.22179176 -56.9053341 206.58860655 -60.0625 204.8125 C-60.69994141 204.44447266 -61.33738281 204.07644531 -61.99414062 203.69726562 C-65.28858678 201.67426757 -65.28858678 201.67426757 -69 201 C-69.42522949 200.57146729 -69.85045898 200.14293457 -70.28857422 199.70141602 C-72.44247839 197.56010958 -74.74249668 196.27907571 -77.3828125 194.77734375 C-78.45998535 194.16117188 -79.5371582 193.545 -80.64697266 192.91015625 C-82.36859619 191.93369141 -82.36859619 191.93369141 -84.125 190.9375 C-85.30686786 190.26109764 -86.4883439 189.58401022 -87.66943359 188.90625 C-92.02717872 186.40664793 -96.38918955 183.91463688 -100.7578125 181.43408203 C-116.80540539 172.31178965 -116.80540539 172.31178965 -123 166 C-123.53625 165.48050781 -124.0725 164.96101562 -124.625 164.42578125 C-127.56236894 161.37992994 -128.25153506 158.06309538 -129 154 C-129.33 153.34 -129.66 152.68 -130 152 C-130.08488787 149.06193312 -130.10781958 146.14872024 -130.08520508 143.2109375 C-130.08202271 142.30011917 -130.07884033 141.38930084 -130.07556152 140.45088196 C-130.06292918 137.42552214 -130.0420488 134.40030163 -130.01953125 131.375 C-130.01257421 130.34122223 -130.00561718 129.30744446 -129.99844933 128.24234009 C-129.96099954 122.76485027 -129.91697211 117.28745625 -129.86791992 111.81005859 C-129.81871828 106.16573911 -129.79242388 100.52156006 -129.77148914 94.8770752 C-129.75105018 90.52729923 -129.71314467 86.17779704 -129.6706295 81.82818604 C-129.65335006 79.74876279 -129.6426084 77.66927405 -129.63868141 75.58978271 C-129.63154962 72.66743442 -129.59950546 69.7463112 -129.56176758 66.82421875 C-129.5652269 65.97499344 -129.56868622 65.12576813 -129.57225037 64.25080872 C-129.45086996 57.84745523 -127.71461693 52.76932644 -125 47 C-124.52348857 45.93304146 -124.52348857 45.93304146 -124.03735065 44.8445282 C-122.37285261 41.88486015 -119.7887318 40.49950133 -117 38.625 C-116.4227417 38.23578369 -115.8454834 37.84656738 -115.25073242 37.44555664 C-101.12622609 28 -101.12622609 28 -98 28 C-97.505 27.01 -97.505 27.01 -97 26 C-94.11856386 24.26026497 -91.25259976 22.61505106 -88.23291016 21.13232422 C-85.57607249 19.78502342 -82.98504445 18.33985343 -80.38671875 16.8828125 C-79.30326172 16.27566406 -78.21980469 15.66851563 -77.10351562 15.04296875 C-75.97623047 14.41003906 -74.84894531 13.77710937 -73.6875 13.125 C-72.57181641 12.49980469 -71.45613281 11.87460937 -70.30664062 11.23046875 C-68.15316371 10.02288774 -66.00061606 8.8136477 -63.84912109 7.60253906 C-62.14097492 6.64176173 -60.43096879 5.68426375 -58.71728516 4.73339844 C-56.18088957 3.31574973 -54.06640513 2.06640513 -52 0 C-50.76390155 -0.67791126 -49.50211366 -1.3097628 -48.2265625 -1.91015625 C-47.4840625 -2.26013672 -46.7415625 -2.61011719 -45.9765625 -2.97070312 C-44.81253906 -3.51114258 -44.81253906 -3.51114258 -43.625 -4.0625 C-42.85671875 -4.42666016 -42.0884375 -4.79082031 -41.296875 -5.16601562 C-26.31259243 -12.17855617 -13.93220303 -7.92426417 0 0 Z M-52.875 9.75 C-54.58121138 10.74756089 -56.28743752 11.7450972 -57.99436951 12.74142456 C-59.1788908 13.43310522 -60.36293788 14.12559857 -61.54652405 14.81887817 C-67.62930608 18.37941805 -73.75471436 21.86382117 -79.88180542 25.34735107 C-105.51111394 37.44907469 -105.51111394 37.44907469 -121.53663254 58.88831902 C-122.289052 62.31728197 -122.15614609 65.78692505 -122.16113281 69.28173828 C-122.16609772 70.1148201 -122.17106262 70.94790192 -122.17617798 71.80622864 C-122.19077499 74.56093171 -122.19759889 77.31557711 -122.203125 80.0703125 C-122.20888019 81.99120077 -122.21463788 83.91208904 -122.22039795 85.83297729 C-122.23090213 89.8629381 -122.23674805 93.892879 -122.24023438 97.92285156 C-122.24570598 103.06727114 -122.26970791 108.21142429 -122.29820633 113.35576057 C-122.31690653 117.32623033 -122.32204231 121.296637 -122.32357025 125.26714706 C-122.32658263 127.16241786 -122.33456296 129.05768792 -122.34775543 130.95291519 C-122.65581972 149.45615391 -122.65581972 149.45615391 -113.43066406 164.90576172 C-109.00472511 168.71911088 -104.02907719 171.36121306 -98.875 174.0625 C-96.62355256 175.28228383 -94.37224914 176.50233351 -92.12109375 177.72265625 C-91.0522998 178.29387207 -89.98350586 178.86508789 -88.88232422 179.45361328 C-85.53423846 181.24988426 -82.23154838 183.10663474 -78.9375 185 C-77.89207031 185.598125 -76.84664062 186.19625 -75.76953125 186.8125 C-72.62977082 188.62536421 -69.50827034 190.46848469 -66.38671875 192.3125 C-60.28075209 195.91530971 -54.15411348 199.48003758 -48 203 C-47.18547363 203.46631836 -46.37094727 203.93263672 -45.53173828 204.41308594 C-37.61990859 208.8737002 -30.35807782 212.95020595 -21 211 C-15.74072284 209.52966445 -11.15105392 207.16680469 -6.51171875 204.3203125 C-0.94684396 200.94800351 4.69591313 197.72238503 10.3527832 194.50738525 C21.45860445 188.19447784 32.52064106 181.81224768 43.53564453 175.34179688 C44.92565674 174.52678711 44.92565674 174.52678711 46.34375 173.6953125 C47.55321289 172.9839917 47.55321289 172.9839917 48.78710938 172.25830078 C50.82800625 171.09779962 52.88932633 170.0269935 55 169 C55 168.34 55 167.68 55 167 C55.61875 166.9175 56.2375 166.835 56.875 166.75 C59.67505419 165.76174558 59.74113932 164.59640015 61 162 C61.63550781 161.70738281 62.27101562 161.41476563 62.92578125 161.11328125 C66.82613953 159.01986861 67.70466076 155.03016523 69 151 C70.58866706 141.02651376 70.11152164 130.71242186 70.01953125 120.64453125 C70.01257421 119.78416449 70.00561718 118.92379772 69.99844933 118.03735924 C69.96132367 113.49463299 69.91745967 108.95203102 69.86791992 104.40942383 C69.81837162 99.74280986 69.79230883 95.0763686 69.77148914 90.40955067 C69.75106181 86.79325529 69.71317194 83.17729002 69.6706295 79.56119347 C69.65339019 77.8410028 69.64261767 76.12073375 69.63868141 74.4004612 C70.01442932 61.49504831 70.01442932 61.49504831 65 50 C64.01 49.67 63.02 49.34 62 49 C62 48.01 62 47.02 62 46 C59.73828447 44.32066081 57.53639157 42.87385916 55.125 41.4375 C54.40755615 40.99986328 53.6901123 40.56222656 52.95092773 40.11132812 C46.97555974 36.50092749 40.88753328 33.09933195 34.76806641 29.74072266 C29.79571981 27.01074466 24.87981544 24.20441836 20 21.3125 C17.00036023 19.54105634 14.00021071 17.77047649 11 16 C9.43330566 15.07453369 9.43330566 15.07453369 7.83496094 14.13037109 C4.9344629 12.42131094 2.0304355 10.71875432 -0.87744141 9.02230835 C-2.5894891 8.0207736 -4.29675527 7.01107945 -6.00390625 6.0012207 C-24.33243023 -4.66959042 -35.30606529 -0.64509948 -52.875 9.75 Z " fill="#010101" transform="translate(141,10)"/>
<path d="M0 0 C6.60574154 0.06567893 13.02118185 0.60486051 19.54589844 1.63037109 C20.36106934 1.75637695 21.17624023 1.88238281 22.01611328 2.01220703 C23.95793961 2.34805881 25.88062743 2.79144989 27.79589844 3.25537109 C28.29089844 4.24537109 28.29089844 4.24537109 28.79589844 5.25537109 C29.66601562 5.39716797 30.53613281 5.53896484 31.43261719 5.68505859 C41.30803269 7.35963544 50.29904318 13.92228759 57.79589844 20.25537109 C59.58670621 21.65230619 61.37838759 23.04812202 63.17089844 24.44287109 C66.23772206 26.83304633 68.59991407 29.04632212 70.79589844 32.25537109 C71.31667969 33.01591797 71.83746094 33.77646484 72.37402344 34.56005859 C86.77438727 56.6989357 93.87611657 80.72378172 88.77050781 107.15014648 C83.3611644 130.43202731 69.04162813 150.54224377 48.79589844 163.25537109 C37.37948969 170.30585125 37.37948969 170.30585125 32.79589844 171.25537109 C29.32885052 172.26888084 25.86438454 173.29067293 22.40136719 174.31787109 C9.46122197 177.68258924 -4.79376374 177.17863365 -17.89160156 174.88037109 C-18.61589355 174.75436523 -19.34018555 174.62835938 -20.08642578 174.49853516 C-21.80935289 174.16192431 -23.51080112 173.71853232 -25.20410156 173.25537109 C-25.53410156 172.59537109 -25.86410156 171.93537109 -26.20410156 171.25537109 C-27.86924289 170.91449977 -29.53629927 170.58297512 -31.20410156 170.25537109 C-47.7335877 163.43069689 -63.11264459 151.88299388 -72.20410156 136.25537109 C-72.86410156 135.59537109 -73.52410156 134.93537109 -74.20410156 134.25537109 C-74.69910156 132.73943359 -74.69910156 132.73943359 -75.20410156 131.19287109 C-75.86162712 128.13386304 -75.86162712 128.13386304 -78.20410156 127.25537109 C-79.30378651 124.49121736 -80.28614149 121.76753786 -81.20410156 118.94287109 C-81.47174316 118.11980469 -81.73938477 117.29673828 -82.01513672 116.44873047 C-89.3667165 93.2542465 -87.32770881 70.26078009 -76.79394531 48.31787109 C-73.54740479 42.08451329 -69.68274051 36.65485169 -65.20410156 31.25537109 C-64.71425781 30.63146484 -64.22441406 30.00755859 -63.71972656 29.36474609 C-62.59844017 27.9532444 -61.40812262 26.59699456 -60.20410156 25.25537109 C-59.54410156 25.25537109 -58.88410156 25.25537109 -58.20410156 25.25537109 C-58.20410156 24.59537109 -58.20410156 23.93537109 -58.20410156 23.25537109 C-45.59734035 12.47256682 -32.11546333 5.80569532 -16.05566406 1.98193359 C-10.49531133 0.56518618 -6.13928752 0.01165553 0 0 Z M-59.20410156 34.25537109 C-74.38997286 51.68407877 -80.56941021 73.43661043 -79.20410156 96.25537109 C-78.20290726 106.14412462 -75.65979688 115.34398046 -71.20410156 124.25537109 C-70.71167969 125.24021484 -70.21925781 126.22505859 -69.71191406 127.23974609 C-59.60594585 145.90435725 -42.3107082 160.07475868 -22.17285156 166.64208984 C-0.44983332 172.93252907 22.54558688 170.06712227 42.25292969 159.34521484 C46.79776167 156.74214516 50.84077969 153.67907521 54.79589844 150.25537109 C56.31183594 149.11068359 56.31183594 149.11068359 57.85839844 147.94287109 C58.49777344 147.38599609 59.13714844 146.82912109 59.79589844 146.25537109 C59.79589844 145.59537109 59.79589844 144.93537109 59.79589844 144.25537109 C60.45589844 144.25537109 61.11589844 144.25537109 61.79589844 144.25537109 C77.7774318 126.74862916 83.87954589 105.33340602 83.17089844 82.03662109 C82.23663534 64.12212623 74.9073891 47.45527487 62.79589844 34.25537109 C62.13203125 33.49998047 61.46816406 32.74458984 60.78417969 31.96630859 C48.04213524 18.25860089 28.58614477 8.22990575 9.79589844 7.25537109 C-17.08433996 6.32946407 -40.47778084 14.24587636 -59.20410156 34.25537109 Z " fill="#010101" transform="translate(111.2041015625,26.74462890625)"/>
<path d="M0 0 C3 1 3 1 4.15625 2.78515625 C5.58922146 6.54670633 5.80039524 10.05419187 5 14 C3.24064285 16.63296897 1.87159896 17.35148949 -1 19 C-5.75889603 19.79314934 -8.98886314 18.61190307 -13 16 C-14.67214826 12.99013314 -14.06174868 9.23576907 -13.55859375 5.90625 C-13 4 -13 4 -10.9375 1.5 C-6.93126855 -0.54573521 -4.47732458 -0.36107456 0 0 Z " fill="#010101" transform="translate(118,106)"/>
<path d="M0 0 C0.99 0.495 0.99 0.495 2 1 C1.67 1.99 1.34 2.98 1 4 C0.67 2.68 0.34 1.36 0 0 Z " fill="#000000" transform="translate(120,179)"/>
<path d="M0 0 C1.32 0.33 2.64 0.66 4 1 C3.01 1.495 3.01 1.495 2 2 C1.34 1.34 0.68 0.68 0 0 Z " fill="#000000" transform="translate(111,96)"/>
<path d="M0 0 C0.66 0.33 1.32 0.66 2 1 C1.01 1 0.02 1 -1 1 C-0.67 0.67 -0.34 0.34 0 0 Z " fill="#000000" transform="translate(173,120)"/>
<path d="M0 0 C0.66 0.66 1.32 1.32 2 2 C1.34 2 0.68 2 0 2 C0 1.34 0 0.68 0 0 Z " fill="#000000" transform="translate(67,191)"/>
<path d="M0 0 C0.33 0.66 0.66 1.32 1 2 C0.34 1.67 -0.32 1.34 -1 1 C-0.67 0.67 -0.34 0.34 0 0 Z " fill="#000000" transform="translate(61,187)"/>
<path d="M0 0 C0.66 0.66 1.32 1.32 2 2 C1.34 2 0.68 2 0 2 C0 1.34 0 0.68 0 0 Z " fill="#000000" transform="translate(63,102)"/>
<path d="M0 0 C3 1 3 1 3 1 Z " fill="#000000" transform="translate(121,26)"/>
<path d="" fill="#000000" transform="translate(0,0)"/>
<path d="M0 0 C2 1 2 1 2 1 Z " fill="#000000" transform="translate(158,191)"/>
<path d="M0 0 C2 1 2 1 2 1 Z " fill="#000000" transform="translate(45,183)"/>
<path d="" fill="#000000" transform="translate(0,0)"/>
<path d="M0 0 C2 1 2 1 2 1 Z " fill="#000000" transform="translate(80,171)"/>
<path d="" fill="#000000" transform="translate(0,0)"/>
<path d="" fill="#000000" transform="translate(0,0)"/>
<path d="" fill="#000000" transform="translate(0,0)"/>
<path d="" fill="#000000" transform="translate(0,0)"/>
<path d="M0 0 C2 1 2 1 2 1 Z " fill="#000000" transform="translate(48,127)"/>
<path d="" fill="#000000" transform="translate(0,0)"/>
<path d="M0 0 C2 1 2 1 2 1 Z " fill="#000000" transform="translate(176,112)"/>
<path d="M0 0 C2 1 2 1 2 1 Z " fill="#000000" transform="translate(155,110)"/>
<path d="" fill="#000000" transform="translate(0,0)"/>
<path d="M0 0 C2 1 2 1 2 1 Z " fill="#000000" transform="translate(159,102)"/>
<path d="M0 0 C2 1 2 1 2 1 Z " fill="#000000" transform="translate(134,81)"/>
<path d="M0 0 C2 1 2 1 2 1 Z " fill="#000000" transform="translate(91,81)"/>
<path d="" fill="#000000" transform="translate(0,0)"/>
<path d="" fill="#000000" transform="translate(0,0)"/>
<path d="M0 0 C2 1 2 1 2 1 Z " fill="#000000" transform="translate(101,57)"/>
<path d="M0 0 C2 1 2 1 2 1 Z " fill="#000000" transform="translate(193,52)"/>
<path d="M0 0 C2 1 2 1 2 1 Z " fill="#000000" transform="translate(169,46)"/>
<path d="M0 0 C2 1 2 1 2 1 Z " fill="#000000" transform="translate(202,45)"/>
<path d="" fill="#000000" transform="translate(0,0)"/>
<path d="M0 0 C2 1 2 1 2 1 Z " fill="#000000" transform="translate(66,38)"/>
<path d="" fill="#000000" transform="translate(0,0)"/>
<path d="M0 0 C2 1 2 1 2 1 Z " fill="#000000" transform="translate(101,26)"/>
<path d="M0 0 C2 1 2 1 2 1 Z " fill="#000000" transform="translate(104,1)"/>
<path d="" fill="#000000" transform="translate(0,0)"/>
<path d="" fill="#000000" transform="translate(0,0)"/>
<path d="" fill="#000000" transform="translate(0,0)"/>
<path d="" fill="#000000" transform="translate(0,0)"/>
<path d="" fill="#000000" transform="translate(0,0)"/>
<path d="" fill="#000000" transform="translate(0,0)"/>
<path d="" fill="#000000" transform="translate(0,0)"/>
<path d="" fill="#000000" transform="translate(0,0)"/>
<path d="" fill="#000000" transform="translate(0,0)"/>
<path d="" fill="#000000" transform="translate(0,0)"/>
<path d="" fill="#000000" transform="translate(0,0)"/>
<path d="" fill="#000000" transform="translate(0,0)"/>
<path d="" fill="#000000" transform="translate(0,0)"/>
<path d="" fill="#000000" transform="translate(0,0)"/>
<path d="" fill="#000000" transform="translate(0,0)"/>
<path d="" fill="#000000" transform="translate(0,0)"/>
<path d="" fill="#000000" transform="translate(0,0)"/>
<path d="" fill="#000000" transform="translate(0,0)"/>
<path d="" fill="#000000" transform="translate(0,0)"/>
<path d="" fill="#000000" transform="translate(0,0)"/>
<path d="" fill="#000000" transform="translate(0,0)"/>
<path d="" fill="#000000" transform="translate(0,0)"/>
<path d="" fill="#000000" transform="translate(0,0)"/>
<path d="" fill="#000000" transform="translate(0,0)"/>
<path d="" fill="#000000" transform="translate(0,0)"/>
<path d="" fill="#000000" transform="translate(0,0)"/>
<path d="" fill="#000000" transform="translate(0,0)"/>
<path d="" fill="#000000" transform="translate(0,0)"/>
<path d="" fill="#000000" transform="translate(0,0)"/>
<path d="" fill="#000000" transform="translate(0,0)"/>
<path d="" fill="#000000" transform="translate(0,0)"/>
<path d="" fill="#000000" transform="translate(0,0)"/>
<path d="" fill="#000000" transform="translate(0,0)"/>
<path d="" fill="#000000" transform="translate(0,0)"/>
<path d="" fill="#000000" transform="translate(0,0)"/>
<path d="" fill="#000000" transform="translate(0,0)"/>
<path d="" fill="#000000" transform="translate(0,0)"/>
<path d="" fill="#000000" transform="translate(0,0)"/>
<path d="" fill="#000000" transform="translate(0,0)"/>
<path d="" fill="#000000" transform="translate(0,0)"/>
<path d="" fill="#000000" transform="translate(0,0)"/>
<path d="" fill="#000000" transform="translate(0,0)"/>
<path d="" fill="#000000" transform="translate(0,0)"/>
<path d="" fill="#000000" transform="translate(0,0)"/>
<path d="" fill="#000000" transform="translate(0,0)"/>
<path d="" fill="#000000" transform="translate(0,0)"/>
<path d="" fill="#000000" transform="translate(0,0)"/>
<path d="" fill="#000000" transform="translate(0,0)"/>
<path d="" fill="#000000" transform="translate(0,0)"/>
<path d="" fill="#000000" transform="translate(0,0)"/>
<path d="" fill="#000000" transform="translate(0,0)"/>
<path d="" fill="#000000" transform="translate(0,0)"/>
<path d="" fill="#000000" transform="translate(0,0)"/>
<path d="" fill="#000000" transform="translate(0,0)"/>
<path d="" fill="#000000" transform="translate(0,0)"/>
<path d="" fill="#000000" transform="translate(0,0)"/>
<path d="" fill="#000000" transform="translate(0,0)"/>
<path d="" fill="#000000" transform="translate(0,0)"/>
<path d="" fill="#000000" transform="translate(0,0)"/>
<path d="" fill="#000000" transform="translate(0,0)"/>
<path d="" fill="#000000" transform="translate(0,0)"/>
<path d="" fill="#000000" transform="translate(0,0)"/>
<path d="" fill="#000000" transform="translate(0,0)"/>
<path d="" fill="#000000" transform="translate(0,0)"/>
<path d="" fill="#000000" transform="translate(0,0)"/>
<path d="" fill="#000000" transform="translate(0,0)"/>
<path d="" fill="#000000" transform="translate(0,0)"/>
<path d="" fill="#000000" transform="translate(0,0)"/>
<path d="" fill="#000000" transform="translate(0,0)"/>
<path d="" fill="#000000" transform="translate(0,0)"/>
<path d="" fill="#000000" transform="translate(0,0)"/>
<path d="" fill="#000000" transform="translate(0,0)"/>
<path d="" fill="#000000" transform="translate(0,0)"/>
<path d="" fill="#000000" transform="translate(0,0)"/>
<path d="" fill="#000000" transform="translate(0,0)"/>
<path d="" fill="#000000" transform="translate(0,0)"/>
<path d="" fill="#000000" transform="translate(0,0)"/>
<path d="" fill="#000000" transform="translate(0,0)"/>
<path d="" fill="#000000" transform="translate(0,0)"/>
<path d="" fill="#000000" transform="translate(0,0)"/>
<path d="" fill="#000000" transform="translate(0,0)"/>
<path d="" fill="#000000" transform="translate(0,0)"/>
<path d="" fill="#000000" transform="translate(0,0)"/>
<path d="" fill="#000000" transform="translate(0,0)"/>
<path d="" fill="#000000" transform="translate(0,0)"/>
<path d="" fill="#000000" transform="translate(0,0)"/>
<path d="" fill="#000000" transform="translate(0,0)"/>
<path d="" fill="#000000" transform="translate(0,0)"/>
<path d="" fill="#000000" transform="translate(0,0)"/>
<path d="" fill="#000000" transform="translate(0,0)"/>
<path d="" fill="#000000" transform="translate(0,0)"/>
<path d="" fill="#000000" transform="translate(0,0)"/>
<path d="" fill="#000000" transform="translate(0,0)"/>
<path d="" fill="#000000" transform="translate(0,0)"/>
<path d="" fill="#000000" transform="translate(0,0)"/>
<path d="" fill="#000000" transform="translate(0,0)"/>
<path d="" fill="#000000" transform="translate(0,0)"/>
<path d="" fill="#000000" transform="translate(0,0)"/>
<path d="" fill="#000000" transform="translate(0,0)"/>
<path d="" fill="#000000" transform="translate(0,0)"/>
<path d="" fill="#000000" transform="translate(0,0)"/>
<path d="" fill="#000000" transform="translate(0,0)"/>
<path d="" fill="#000000" transform="translate(0,0)"/>
<path d="" fill="#000000" transform="translate(0,0)"/>
<path d="" fill="#000000" transform="translate(0,0)"/>
<path d="" fill="#000000" transform="translate(0,0)"/>
<path d="" fill="#000000" transform="translate(0,0)"/>
<path d="" fill="#000000" transform="translate(0,0)"/>
<path d="" fill="#000000" transform="translate(0,0)"/>
<path d="" fill="#000000" transform="translate(0,0)"/>
<path d="" fill="#000000" transform="translate(0,0)"/>
<path d="" fill="#000000" transform="translate(0,0)"/>
<path d="" fill="#000000" transform="translate(0,0)"/>
<path d="" fill="#000000" transform="translate(0,0)"/>
<path d="" fill="#000000" transform="translate(0,0)"/>
<path d="" fill="#000000" transform="translate(0,0)"/>
<path d="" fill="#000000" transform="translate(0,0)"/>
<path d="" fill="#000000" transform="translate(0,0)"/>
<path d="" fill="#000000" transform="translate(0,0)"/>
<path d="" fill="#000000" transform="translate(0,0)"/>
<path d="" fill="#000000" transform="translate(0,0)"/>
<path d="" fill="#000000" transform="translate(0,0)"/>
<path d="" fill="#000000" transform="translate(0,0)"/>
<path d="" fill="#000000" transform="translate(0,0)"/>
<path d="" fill="#000000" transform="translate(0,0)"/>
<path d="" fill="#000000" transform="translate(0,0)"/>
<path d="" fill="#000000" transform="translate(0,0)"/>
<path d="" fill="#000000" transform="translate(0,0)"/>
<path d="" fill="#000000" transform="translate(0,0)"/>
<path d="" fill="#000000" transform="translate(0,0)"/>
<path d="" fill="#000000" transform="translate(0,0)"/>
<path d="" fill="#000000" transform="translate(0,0)"/>
<path d="" fill="#000000" transform="translate(0,0)"/>
<path d="" fill="#000000" transform="translate(0,0)"/>
<path d="" fill="#000000" transform="translate(0,0)"/>
<path d="" fill="#000000" transform="translate(0,0)"/>
<path d="" fill="#000000" transform="translate(0,0)"/>
<path d="" fill="#000000" transform="translate(0,0)"/>
<path d="" fill="#000000" transform="translate(0,0)"/>
<path d="" fill="#000000" transform="translate(0,0)"/>
<path d="" fill="#000000" transform="translate(0,0)"/>
<path d="" fill="#000000" transform="translate(0,0)"/>
<path d="" fill="#000000" transform="translate(0,0)"/>
<path d="" fill="#000000" transform="translate(0,0)"/>
<path d="" fill="#000000" transform="translate(0,0)"/>
<path d="" fill="#000000" transform="translate(0,0)"/>
<path d="" fill="#000000" transform="translate(0,0)"/>
<path d="" fill="#000000" transform="translate(0,0)"/>
<path d="" fill="#000000" transform="translate(0,0)"/>
<path d="" fill="#000000" transform="translate(0,0)"/>
<path d="" fill="#000000" transform="translate(0,0)"/>
<path d="" fill="#000000" transform="translate(0,0)"/>
<path d="" fill="#000000" transform="translate(0,0)"/>
<path d="" fill="#000000" transform="translate(0,0)"/>
<path d="" fill="#000000" transform="translate(0,0)"/>
<path d="" fill="#000000" transform="translate(0,0)"/>
<path d="" fill="#000000" transform="translate(0,0)"/>
<path d="" fill="#000000" transform="translate(0,0)"/>
<path d="" fill="#000000" transform="translate(0,0)"/>
<path d="" fill="#000000" transform="translate(0,0)"/>
<path d="" fill="#000000" transform="translate(0,0)"/>
<path d="" fill="#000000" transform="translate(0,0)"/>
<path d="" fill="#000000" transform="translate(0,0)"/>
<path d="" fill="#000000" transform="translate(0,0)"/>
<path d="" fill="#000000" transform="translate(0,0)"/>
<path d="" fill="#000000" transform="translate(0,0)"/>
<path d="" fill="#000000" transform="translate(0,0)"/>
<path d="" fill="#000000" transform="translate(0,0)"/>
<path d="" fill="#000000" transform="translate(0,0)"/>
<path d="" fill="#000000" transform="translate(0,0)"/>
<path d="" fill="#000000" transform="translate(0,0)"/>
<path d="" fill="#000000" transform="translate(0,0)"/>
<path d="" fill="#000000" transform="translate(0,0)"/>
<path d="" fill="#000000" transform="translate(0,0)"/>
<path d="" fill="#000000" transform="translate(0,0)"/>
<path d="" fill="#000000" transform="translate(0,0)"/>
<path d="" fill="#000000" transform="translate(0,0)"/>
<path d="" fill="#000000" transform="translate(0,0)"/>
<path d="" fill="#000000" transform="translate(0,0)"/>
<path d="" fill="#000000" transform="translate(0,0)"/>
<path d="" fill="#000000" transform="translate(0,0)"/>
<path d="" fill="#000000" transform="translate(0,0)"/>
<path d="" fill="#000000" transform="translate(0,0)"/>
<path d="" fill="#000000" transform="translate(0,0)"/>
<path d="" fill="#000000" transform="translate(0,0)"/>
<path d="" fill="#000000" transform="translate(0,0)"/>
<path d="" fill="#000000" transform="translate(0,0)"/>
<path d="" fill="#000000" transform="translate(0,0)"/>
<path d="" fill="#000000" transform="translate(0,0)"/>
<path d="" fill="#000000" transform="translate(0,0)"/>
<path d="" fill="#000000" transform="translate(0,0)"/>
<path d="" fill="#000000" transform="translate(0,0)"/>
<path d="" fill="#000000" transform="translate(0,0)"/>
<path d="" fill="#000000" transform="translate(0,0)"/>
<path d="" fill="#000000" transform="translate(0,0)"/>
<path d="" fill="#000000" transform="translate(0,0)"/>
<path d="" fill="#000000" transform="translate(0,0)"/>
<path d="" fill="#000000" transform="translate(0,0)"/>
<path d="" fill="#000000" transform="translate(0,0)"/>
<path d="" fill="#000000" transform="translate(0,0)"/>
<path d="" fill="#000000" transform="translate(0,0)"/>
<path d="" fill="#000000" transform="translate(0,0)"/>
<path d="" fill="#000000" transform="translate(0,0)"/>
<path d="" fill="#000000" transform="translate(0,0)"/>
<path d="" fill="#000000" transform="translate(0,0)"/>
<path d="" fill="#000000" transform="translate(0,0)"/>
<path d="" fill="#000000" transform="translate(0,0)"/>
<path d="" fill="#000000" transform="translate(0,0)"/>
<path d="" fill="#000000" transform="translate(0,0)"/>
<path d="" fill="#000000" transform="translate(0,0)"/>
<path d="" fill="#000000" transform="translate(0,0)"/>
<path d="" fill="#000000" transform="translate(0,0)"/>
<path d="" fill="#000000" transform="translate(0,0)"/>
<path d="" fill="#000000" transform="translate(0,0)"/>
<path d="" fill="#000000" transform="translate(0,0)"/>
<path d="" fill="#000000" transform="translate(0,0)"/>
<path d="" fill="#000000" transform="translate(0,0)"/>
<path d="" fill="#000000" transform="translate(0,0)"/>
<path d="" fill="#000000" transform="translate(0,0)"/>
<path d="" fill="#000000" transform="translate(0,0)"/>
</svg>
